<?xml version="1.0" encoding="utf-8"?>
<!-- Generator: Adobe Illustrator 19.0.0, SVG Export Plug-In . SVG Version: 6.00 Build 0)  -->
<svg version="1.1" id="Layer_1" xmlns="http://www.w3.org/2000/svg" xmlns:xlink="http://www.w3.org/1999/xlink" x="0px" y="0px"
	 viewBox="298 -498 1556 1556" style="enable-background:new 298 -498 1556 1556;" xml:space="preserve">
<style type="text/css">
	.st0{fill:none;stroke:#83CCDC;stroke-width:40;stroke-miterlimit:10;}
</style>
<path class="st0" d="M1524,344V216c0-17.3-6.3-32.3-19-45s-27.7-19-45-19h-256v-256c0-17.3-6.3-32.3-19-45s-27.7-19-45-19h-128
	c-17.3,0-32.3,6.3-45,19s-19,27.7-19,45v256H692c-17.3,0-32.3,6.3-45,19s-19,27.7-19,45v128c0,17.3,6.3,32.3,19,45s27.7,19,45,19
	h256v256c0,17.3,6.3,32.3,19,45s27.7,19,45,19h128c17.3,0,32.3-6.3,45-19s19-27.7,19-45V408h256c17.3,0,32.3-6.3,45-19
	S1524,361.3,1524,344z M1844,280c0,139.3-34.3,267.8-103,385.5S1579.2,876.3,1461.5,945s-246.2,103-385.5,103s-267.8-34.3-385.5-103
	S479.7,783.2,411,665.5S308,419.3,308,280s34.3-267.8,103-385.5S572.8-316.3,690.5-385S936.7-488,1076-488s267.8,34.3,385.5,103
	s210.8,161.8,279.5,279.5S1844,140.7,1844,280z"/>
</svg>
