<?xml version="1.0" encoding="utf-8"?>
<!-- Generator: Adobe Illustrator 19.0.0, SVG Export Plug-In . SVG Version: 6.00 Build 0)  -->
<svg version="1.1" id="Layer_1" xmlns="http://www.w3.org/2000/svg" xmlns:xlink="http://www.w3.org/1999/xlink" x="0px" y="0px"
	 viewBox="298 -498 1556 1556" style="enable-background:new 298 -498 1556 1556;" xml:space="preserve">
<style type="text/css">
	.st0{fill:none;stroke:#83CCDC;stroke-width:20;stroke-miterlimit:10;}
</style>
<path class="st0" d="M1457,506c0-17.3-6.3-32.3-19-45l-181-181l181-181c12.7-12.7,19-27.7,19-45c0-18-6.3-33.3-19-46l-90-90
	c-12.7-12.7-28-19-46-19c-17.3,0-32.3,6.3-45,19L1076,99L895-82c-12.7-12.7-27.7-19-45-19c-18,0-33.3,6.3-46,19L714,8
	c-12.7,12.7-19,28-19,46c0,17.3,6.3,32.3,19,45l181,181L714,461c-12.7,12.7-19,27.7-19,45c0,18,6.3,33.3,19,46l90,90
	c12.7,12.7,28,19,46,19c17.3,0,32.3-6.3,45-19l181-181l181,181c12.7,12.7,27.7,19,45,19c18,0,33.3-6.3,46-19l90-90
	C1450.7,539.3,1457,524,1457,506z M1844,280c0,139.3-34.3,267.8-103,385.5S1579.2,876.3,1461.5,945s-246.2,103-385.5,103
	s-267.8-34.3-385.5-103S479.7,783.2,411,665.5S308,419.3,308,280s34.3-267.8,103-385.5S572.8-316.3,690.5-385S936.7-488,1076-488
	s267.8,34.3,385.5,103s210.8,161.8,279.5,279.5S1844,140.7,1844,280z"/>
</svg>
