<?xml version="1.0" encoding="utf-8"?>
<!-- Generator: Adobe Illustrator 19.0.0, SVG Export Plug-In . SVG Version: 6.00 Build 0)  -->
<svg version="1.1" id="Layer_1" xmlns="http://www.w3.org/2000/svg" xmlns:xlink="http://www.w3.org/1999/xlink" x="0px" y="0px"
	 viewBox="45 -468 1049 1497" style="enable-background:new 45 -468 1049 1497;" xml:space="preserve">
<style type="text/css">
	.st0{fill:none;stroke:#83CCDC;stroke-width:40;stroke-miterlimit:10;}
</style>
<path class="st0" d="M1081.5,504.5c0,141.3-50,262-150,362s-220.7,150-362,150s-262-50-362-150s-150-220.7-150-362
	c0-96.7,27-188.3,81-275c4-6,24.8-36.2,62.5-90.5S272.3,34.3,302-12s62.8-105.7,99.5-178s64.3-139.5,83-201.5c6-20,17.3-35.7,34-47
	s33.7-17,51-17s34.5,5.7,51.5,17s28.2,27,33.5,47c18.7,62,46.3,129.2,83,201.5S807.3-58.3,837-12s63.3,96.7,101,151
	s58.5,84.5,62.5,90.5C1054.5,314.2,1081.5,405.8,1081.5,504.5z"/>
</svg>
